<svg width="81" height="80" viewBox="0 0 81 80" fill="none" xmlns="http://www.w3.org/2000/svg">
<circle cx="40.5" cy="40" r="39.5" fill="white" stroke="#E4E4E4"/>
<path d="M40.5002 31.8666C42.0468 31.8666 43.3002 33.12 43.3002 34.6666C43.3002 36.2133 42.0468 37.4666 40.5002 37.4666C38.9535 37.4666 37.7002 36.2133 37.7002 34.6666C37.7002 33.12 38.9535 31.8666 40.5002 31.8666ZM40.5002 43.8666C44.4602 43.8666 48.6335 45.8133 48.6335 46.6666V48.1333H32.3668V46.6666C32.3668 45.8133 36.5402 43.8666 40.5002 43.8666ZM40.5002 29.3333C37.5535 29.3333 35.1668 31.72 35.1668 34.6666C35.1668 37.6133 37.5535 40 40.5002 40C43.4468 40 45.8335 37.6133 45.8335 34.6666C45.8335 31.72 43.4468 29.3333 40.5002 29.3333ZM40.5002 41.3333C36.9402 41.3333 29.8335 43.12 29.8335 46.6666V50.6666H51.1668V46.6666C51.1668 43.12 44.0602 41.3333 40.5002 41.3333Z" fill="#263238"/>
</svg>
