<svg width="81" height="80" viewBox="0 0 81 80" fill="none" xmlns="http://www.w3.org/2000/svg">
<circle cx="40.5" cy="40" r="39.5" fill="white" stroke="#E4E4E4"/>
<path d="M49.8335 34.6666L44.5002 40H48.5002C48.5002 44.4133 44.9135 48 40.5002 48C39.1535 48 37.8735 47.6666 36.7668 47.0666L34.8202 49.0133C36.4602 50.0533 38.4068 50.6666 40.5002 50.6666C46.3935 50.6666 51.1668 45.8933 51.1668 40H55.1668L49.8335 34.6666ZM32.5002 40C32.5002 35.5866 36.0868 32 40.5002 32C41.8468 32 43.1268 32.3333 44.2335 32.9333L46.1802 30.9866C44.5402 29.9466 42.5935 29.3333 40.5002 29.3333C34.6068 29.3333 29.8335 34.1066 29.8335 40H25.8335L31.1668 45.3333L36.5002 40H32.5002Z" fill="#323232"/>
</svg>
